<svg xmlns="http://www.w3.org/2000/svg" width="100" height="100" fill="none"><path fill="#6B69BF" d="M48.294 7.998c-4.58 4.187-7.35 11.38-7.935 17.283-.053.752-.426.913-1.012.43-4.42-3.274-9.213-5.529-14.378-6.334a546.293 546.293 0 0 1-3.462-.483c-.213 0-.372-.215-.372-.43.32-6.225 2.503-11.861 6.497-16.853C28.27.859 28.803 0 29.922 0c6.603-.054 13.366 3.113 18.319 7.514a.328.328 0 0 1 0 .43l.053.053Zm30.037 11.057c-6.497.214-12.78 2.737-17.84 6.816-.213.215-.585.161-.798-.107a.412.412 0 0 1-.107-.269c-.799-6.763-3.461-12.613-7.935-17.551-.106-.161-.106-.376 0-.483C56.817 2.845 62.834.322 69.704 0c.533 0 1.118.268 1.491.644 4.58 5.153 7.083 11.164 7.509 17.981 0 .215-.16.43-.373.43ZM49.683 41.057c-1.49-4.83-3.834-8.534-7.083-12.291-.16-.215-.266-.43-.212-.644.319-7.032 2.662-13.097 7.135-18.304.32-.322.586-.322.852 0 4.474 5.207 6.87 11.326 7.136 18.25 0 .214 0 .375-.16.537-.851 1.234-1.916 2.254-2.822 3.488a32.321 32.321 0 0 0-4.313 8.964c-.16.537-.32.537-.533 0ZM21.504 21.312c6.763.376 13.154 3.006 18.053 7.676.373.375.533.912.586 1.395.266 4.67 1.278 9.125 3.621 12.99.373.644.266.75-.426.429-4.207-2.093-8.68-3.274-13.366-3.49-.373 0-.64-.16-.906-.428-4.74-5.1-7.349-11.218-7.828-18.25 0-.215.107-.322.266-.322Zm35.57 22.27c-.213.108-.426.161-.639.269-.106 0-.16 0-.213-.108v-.107c2.237-4.455 3.462-8.964 3.568-13.58 0-.322.16-.644.373-.858 5.219-4.885 11.343-7.461 18.426-7.837.106 0 .16 0 .16.161-.373 2.469-.586 4.83-1.332 7.246-1.331 4.187-3.515 7.89-6.55 11.164-.266.269-.586.43-.959.43-4.42.107-8.68 1.18-12.834 3.274v-.054Zm42.78-12.132c-.693 6.602-3.195 12.184-7.403 16.8-.16.161-.425.215-.585 0-4.846-4.508-11.183-7.3-17.84-7.836-.373 0-.426-.161-.213-.483 4.26-5.26 6.71-11.38 7.083-18.25 0-.268.266-.483.532-.483 6.976.43 13.047 3.006 18.213 7.783.106.107.16.268.213.43a12.41 12.41 0 0 1 0 1.985v.054Zm-74.026 9.02c-6.817.699-12.675 3.275-17.68 7.73-.267.215-.64.215-.852 0C2.822 43.154.373 37.09 0 30.004c0-.376.107-.751.426-1.02 5.112-4.67 11.077-7.246 17.946-7.622.426 0 .64.162.693.645.32 6.548 2.662 12.56 6.976 18.034.106.161.106.322 0 .43 0 0-.107.053-.16.053l-.053-.053Zm29.502-.624c1.59-3.796 2.44-7.06 1.898-7.291-.541-.23-2.27 2.66-3.861 6.455-1.59 3.796-2.441 7.06-1.9 7.29.543.231 2.271-2.659 3.862-6.454ZM43.26 33.12c2.078 2.738 4.155 6.657 4.74 10.253.16.858.32 1.717.586 2.522.32 1.074.16 1.128-.532.269-2.077-2.63-4.1-6.441-4.74-10.037a25.42 25.42 0 0 0-.639-2.738c-.32-1.073-.106-1.18.533-.268h.053Zm11.815 15.453-1.598.322c-.425.107-.479 0-.106-.269 4.154-3.166 8.84-5.152 14.059-5.904.586-.107.639 0 .106.376-3.994 2.684-7.562 4.67-12.46 5.475ZM40.74 49.81c.639.215.639.43 0 .644-2.93.913-5.752 2.308-8.414 4.133-1.332.913-2.503 2.04-3.781 3.006a.854.854 0 0 1-.48.161c-7.029-.215-13.206-2.684-18.585-7.46 0 0-.053-.108 0-.162 5.112-4.616 11.077-7.085 18-7.514.639 0 1.225.16 1.65.536a30.949 30.949 0 0 0 11.663 6.71l-.053-.054Zm18.197.106c4.42-1.288 8.414-3.596 11.928-6.87.426-.376.959-.483 1.545-.483 4.633.268 8.946 1.502 12.887 3.757 1.917 1.073 3.408 2.415 5.112 3.65.107.107.16.214.053.375l-.053.054c-1.704 1.18-3.195 2.523-5.006 3.542-4.26 2.416-8.68 3.65-13.26 3.758-.532 0-.958-.108-1.331-.483-3.621-3.275-7.562-5.583-11.929-6.87-.586-.162-.586-.323 0-.484l.054.054ZM46.236 48.47c.213.161.16.215-.054.215-5.432-.483-9.32-2.63-13.792-5.475-.586-.376-.533-.537.16-.43 4.792.537 9.372 2.47 13.739 5.744l-.053-.054Zm.166 3.058c.32 0 .373 0 .107.214-4.1 3.167-8.787 5.1-14.112 5.85-.32 0-.32 0-.107-.214 3.994-3.113 8.68-5.045 14.112-5.85Zm21.478 5.741s.107.054.053.107c-.053.054-.053.108-.106.054-4.58-.322-8.84-1.879-12.728-4.616-.585-.43-1.224-.698-1.81-1.02-.533-.268-.48-.322.053-.322 3.78.322 8.2 1.664 11.45 3.972a19.902 19.902 0 0 0 3.088 1.771v.054Zm6.502 3.865c-.214-.268-.373-.537-.533-.751-.107-.108-.053-.322.053-.43h.16c6.976-.805 12.887-3.435 17.84-7.943a.415.415 0 0 1 .586 0c4.526 5.045 6.976 11.11 7.508 18.249.053.859-.32 1.127-.905 1.61-5.272 4.455-11.183 6.817-17.68 7.193-.213 0-.373-.162-.426-.376-.373-6.495-2.556-12.399-6.55-17.605l-.053.053Zm-49.562.86c-3.514 4.831-5.431 10.36-5.804 16.586 0 .376-.213.537-.532.483-6.497-.43-12.355-2.845-17.574-7.192-.586-.484-.905-1.074-.852-1.825.373-6.764 2.716-12.614 7.03-17.606.425-.483.905-.536 1.384-.107 5.219 4.401 11.023 6.978 17.52 7.568.16 0 .266.161.266.322 0 .054 0 .107-.106.161-.48.483-.905 1.02-1.331 1.557v.053Zm23.696-7.459c-.745 4.884-2.662 9.393-5.804 13.472 0 .054-.107.054-.16 0 0 0-.053-.054 0-.108.639-5.152 2.61-9.876 5.858-14.116.213-.322.32-.268.266.108 0 .214-.053.429-.106.644h-.054Zm8.933 13.253c.053.108 0 .162 0 .215-.106.054-.266 0-.32-.053-3.088-4.08-4.952-8.642-5.644-13.688-.054-.483 0-.536.372-.16 2.983 3.971 4.846 8.48 5.539 13.472 0 .053 0 .16.106.215h-.053ZM38.822 71.98c-5.006 4.295-10.704 6.656-17.095 7.032-.372 0-.532-.161-.479-.483.533-6.924 3.089-12.936 7.722-18.035.266-.322.585-.43 1.012-.483 4.633-.107 9.053-1.288 13.366-3.596.48-.268.64-.161.373.376-2.183 4.079-3.408 8.641-3.621 13.58 0 .805-.693 1.127-1.225 1.61h-.053Zm17.41-15.136c-.32-.59-.16-.698.372-.376 4.1 2.2 8.574 3.382 13.367 3.596.373 0 .692.161.905.43 3.195 3.381 5.485 7.46 6.817 12.184.585 1.986.639 3.918 1.065 5.904.053.322-.054.483-.426.483-7.136-.537-13.154-3.167-18.106-7.89-.267-.215-.373-.537-.426-.912-.16-4.724-1.332-9.179-3.568-13.42ZM42.531 71.545c3.249-3.436 5.592-7.407 6.977-11.863.266-.912.585-.912.852 0 1.384 4.617 3.834 8.32 6.976 11.916.16.161.213.322.213.537-.32 7.085-2.716 13.258-7.243 18.41a.397.397 0 0 1-.639 0c-4.58-5.313-6.976-11.486-7.242-18.517 0-.215.053-.376.213-.537l-.107.054Zm5.549 21.369c-5.38 4.562-11.077 7.139-17.947 7.086-.852 0-1.438-.107-2.023-.805-4.314-5.368-6.657-11.164-6.923-17.498 0-.268.106-.43.372-.43 6.444-.321 12.462-2.576 18-6.923.213-.161.48-.108.64.107 0 .054.106.161.106.215.692 6.655 3.248 12.506 7.828 17.605.213.215.213.43 0 .644h-.053Zm3.714-.164c-.16-.108-.16-.269 0-.43 4.527-5.045 7.136-11.003 7.935-17.82 0-.215.213-.376.426-.322.053 0 .107 0 .16.054 3.302 2.63 6.923 4.562 10.864 5.797 2.45.751 4.952 1.02 7.455 1.342.16 0 .266.16.266.322-.798 6.87-2.769 12.72-7.455 17.766-.213.268-.586.43-.905.43-6.923.482-13.58-2.47-18.692-7.193l-.053.053Z"/></svg>